<svg width="68" height="69" viewBox="0 0 68 69" fill="none" xmlns="http://www.w3.org/2000/svg">
<circle cx="34" cy="34.5" r="34" fill="#F4F4F4"/>
<path d="M48.1885 41.8734C47.1959 40.8734 44.7921 39.4141 43.6259 38.826C42.1071 38.0611 41.9821 37.9986 40.7883 38.8854C39.992 39.4772 39.4626 40.006 38.5307 39.8072C37.5988 39.6085 35.5738 38.4879 33.8006 36.7205C32.0275 34.9531 30.8418 32.8694 30.6424 31.9407C30.443 31.012 30.9806 30.4889 31.5668 29.6908C32.3931 28.5658 32.3306 28.3783 31.6243 26.8597C31.0737 25.6785 29.5718 23.2973 28.568 22.3099C27.4942 21.2493 27.4942 21.4368 26.8023 21.7243C26.239 21.9612 25.6986 22.2493 25.1879 22.5848C24.1879 23.2492 23.6329 23.801 23.2447 24.6304C22.8566 25.4597 22.6822 27.404 24.6866 31.0451C26.6911 34.6862 28.0974 36.548 31.0081 39.4504C33.9187 42.3527 36.1569 43.9133 39.4289 45.7482C43.4765 48.015 45.029 47.5731 45.8609 47.1857C46.6928 46.7982 47.2472 46.2482 47.9128 45.2482C48.2493 44.7384 48.538 44.1986 48.7754 43.6358C49.0635 42.9465 49.251 42.9465 48.1885 41.8734Z" stroke="#242424" stroke-width="2" stroke-miterlimit="10"/>
</svg>
